HIERARCHY
ROOT joint_Root
{
	OFFSET 0.0 0.0 0.0
	CHANNELS 6 Xposition Yposition Zposition Zrotation Xrotation Yrotation 
	JOINT Hips
	{
		OFFSET 4.5925 91.4895 -427.239
		CHANNELS 6 Xposition Yposition Zposition Zrotation Xrotation Yrotation 
		JOINT Spine
		{
			OFFSET 15.7357 0.0 0.0
			CHANNELS 6 Xposition Yposition Zposition Zrotation Xrotation Yrotation 
			JOINT Chest
			{
				OFFSET 8.98455 -0.406207 0.0
				CHANNELS 6 Xposition Yposition Zposition Zrotation Xrotation Yrotation 
				JOINT Neck
				{
					OFFSET 16.3773 0.0 0.0
					CHANNELS 6 Xposition Yposition Zposition Zrotation Xrotation Yrotation 
					JOINT Head
					{
						OFFSET 6.45672 0.0 0.0
						CHANNELS 6 Xposition Yposition Zposition Zrotation Xrotation Yrotation 
						End Site
						{
							OFFSET 0.0 0.0 0.0
						}
					}
				}
				JOINT Shoulder_L
				{
					OFFSET 12.9942 -0.242716 4.98039
					CHANNELS 6 Xposition Yposition Zposition Zrotation Xrotation Yrotation 
					JOINT UpperArm_L
					{
						OFFSET 5.34809 0.0 0.0
						CHANNELS 6 Xposition Yposition Zposition Zrotation Xrotation Yrotation 
						JOINT LowerArm_L
						{
							OFFSET 24.3286 1.87007e-05 0.0
							CHANNELS 6 Xposition Yposition Zposition Zrotation Xrotation Yrotation 
							JOINT Hand_L
							{
								OFFSET 22.2916 0.0 0.0
								CHANNELS 6 Xposition Yposition Zposition Zrotation Xrotation Yrotation 
								End Site
								{
									OFFSET 0.0 0.0 0.0
								}
							}
						}
					}
				}
				JOINT Shoulder_R
				{
					OFFSET 12.9945 -0.242716 -4.98039
					CHANNELS 6 Xposition Yposition Zposition Zrotation Xrotation Yrotation 
					JOINT UpperArm_R
					{
						OFFSET -5.34813 0.0 0.0
						CHANNELS 6 Xposition Yposition Zposition Zrotation Xrotation Yrotation 
						JOINT LowerArm_R
						{
							OFFSET -24.3289 0.000322201 0.0
							CHANNELS 6 Xposition Yposition Zposition Zrotation Xrotation Yrotation 
							JOINT Hand_R
							{
								OFFSET -22.2915 -0.000108084 0.0
								CHANNELS 6 Xposition Yposition Zposition Zrotation Xrotation Yrotation 
								End Site
								{
									OFFSET 0.0 0.0 0.0
								}
							}
						}
					}
				}
			}
		}
		JOINT UpperLeg_L
		{
			OFFSET -2.19248 -6.46944 0.0
			CHANNELS 6 Xposition Yposition Zposition Zrotation Xrotation Yrotation 
			JOINT LowerLeg_L
			{
				OFFSET 39.0811 0.0 -1.23785e-05
				CHANNELS 6 Xposition Yposition Zposition Zrotation Xrotation Yrotation 
				JOINT Foot_L
				{
					OFFSET 40.9854 0.0 -1.26872e-05
					CHANNELS 6 Xposition Yposition Zposition Zrotation Xrotation Yrotation 
					JOINT Toes_L
					{
						OFFSET 11.7543 0.0 0.0
						CHANNELS 6 Xposition Yposition Zposition Zrotation Xrotation Yrotation 
						End Site
						{
							OFFSET 0.0 0.0 0.0
						}
					}
				}
			}
		}
		JOINT UpperLeg_R
		{
			OFFSET -2.19251 6.46944 0.0
			CHANNELS 6 Xposition Yposition Zposition Zrotation Xrotation Yrotation 
			JOINT LowerLeg_R
			{
				OFFSET -39.0811 -0.00228153 -0.0401928
				CHANNELS 6 Xposition Yposition Zposition Zrotation Xrotation Yrotation 
				JOINT Foot_R
				{
					OFFSET -40.9854 0.0 0.0
					CHANNELS 6 Xposition Yposition Zposition Zrotation Xrotation Yrotation 
					JOINT Toes_R
					{
						OFFSET -11.7543 0.0 0.0
						CHANNELS 6 Xposition Yposition Zposition Zrotation Xrotation Yrotation 
						End Site
						{
							OFFSET 0.0 0.0 0.0
						}
					}
				}
			}
		}
	}
}
MOTION
Frames:	4
Frame Time:	0.0333333
0.000000 0.000000 0.000000 0.000000 0.000000 -0.000000 122.816000 85.987400 148.345000 110.476000 -53.786400 15.659200 15.735700 0.000005 -0.000001 103.764000 84.154300 -105.114000 8.984550 -0.406207 -0.000000 3.628000 2.826870 -2.787380 16.377300 -0.000001 -0.000001 3.632930 -16.257400 7.366830 6.456720 -0.000001 -0.000000 3.662880 -23.156100 6.767820 12.994200 -0.242716 4.980390 -90.586800 1.545170 -69.176700 5.348090 -0.000007 -0.000001 -61.951600 37.454600 13.348800 24.328600 0.000019 0.000005 10.354700 4.182000 -68.246500 22.291600 -0.000001 0.000005 1.911340 5.563480 -9.358280 12.994500 -0.242716 -4.980390 89.102300 4.827210 -79.454900 -5.348130 -0.000001 -0.000004 -44.072100 51.922800 -53.393300 -24.328900 0.000322 -0.000009 -3.215670 0.719005 -102.570000 -22.291500 -0.000108 -0.000004 16.039600 5.587320 -10.613500 -2.192480 -6.469440 -0.000000 179.698000 -8.819520 -29.033400 39.081100 -0.000007 -0.000012 -0.404719 0.017334 87.548800 40.985400 -0.000006 -0.000013 17.704800 -18.606600 -46.112900 11.754300 -0.000000 0.000003 -0.007586 -0.084632 -20.022700 -2.192510 6.469440 -0.000001 -171.424000 10.169800 173.136000 -39.081100 -0.002282 -0.040193 0.106667 -0.165408 32.002700 -40.985400 0.000008 0.000006 33.199200 6.756030 -76.094200 -11.754300 -0.000006 -0.000006 -0.040618 -0.128230 -20.427800
0.000000 0.000000 0.000000 0.000000 0.000000 -0.000000 120.282000 87.809800 151.071000 118.848000 -63.291300 21.348000 15.735700 0.000005 -0.000001 124.529000 83.861400 -127.075000 8.984550 -0.406207 -0.000000 2.528350 7.069790 -5.246630 16.377300 -0.000001 -0.000001 3.664700 -14.413500 7.043950 6.456720 -0.000001 -0.000000 3.633230 -23.276400 6.200260 12.994200 -0.242716 4.980390 -89.444700 -1.271730 -66.445700 5.348090 -0.000007 -0.000001 -62.842000 39.245600 23.009200 24.328600 0.000019 0.000005 8.923930 3.299270 -69.871700 22.291600 -0.000001 0.000005 0.157232 5.560600 -9.215740 12.994500 -0.242716 -4.980390 89.722700 1.729620 -80.906000 -5.348130 -0.000001 -0.000004 -41.106900 48.477800 -62.485400 -24.328900 0.000322 -0.000009 -3.292700 1.165180 -109.471000 -22.291500 -0.000108 -0.000004 15.244400 5.557710 -9.065350 -2.192480 -6.469440 -0.000000 177.349000 -8.353180 -34.892700 39.081100 -0.000007 -0.000012 -0.295942 0.032746 83.687500 40.985400 -0.000006 -0.000013 18.955400 -18.715400 -51.382900 11.754300 -0.000000 0.000003 -0.007149 -0.080945 -19.872200 -2.192510 6.469440 -0.000001 -174.911000 5.464230 177.712000 -39.081100 -0.002282 -0.040193 0.103216 -0.214319 24.992600 -40.985400 0.000008 0.000006 32.778900 13.713300 -74.228500 -11.754300 -0.000006 -0.000006 -1.288550 -1.433510 -22.556200
0.000000 0.000000 0.000000 0.000000 0.000000 -0.000000 117.643000 89.270100 154.033000 129.449000 -70.077500 30.664500 15.735700 0.000005 -0.000001 133.969000 83.139600 -137.220000 8.984550 -0.406207 -0.000000 2.424990 9.670420 -6.714540 16.377300 -0.000001 -0.000001 2.932650 -12.778500 5.654560 6.456720 -0.000001 -0.000000 2.589860 -22.565200 5.104940 12.994200 -0.242716 4.980390 -87.931000 -4.297190 -64.266300 5.348090 -0.000007 -0.000001 -66.248900 40.787900 30.992200 24.328600 0.000019 0.000005 9.465130 3.309420 -70.900600 22.291600 -0.000001 0.000005 -0.798355 5.556740 -9.026090 12.994500 -0.242716 -4.980390 90.253300 -1.773430 -81.865300 -5.348130 -0.000001 -0.000004 -40.223700 43.782300 -68.039800 -24.328900 0.000322 -0.000009 -2.825300 1.326700 -115.132000 -22.291500 -0.000108 -0.000004 14.288000 5.523300 -7.498150 -2.192480 -6.469440 -0.000000 176.011000 -7.891200 -38.460900 39.081100 -0.000007 -0.000012 -0.130708 0.030556 76.845000 40.985400 -0.000006 -0.000013 16.729200 -14.928200 -56.380000 11.754300 -0.000000 0.000003 -0.006926 -0.079032 -19.794100 -2.192510 6.469440 -0.000001 -179.431000 8.338300 -178.143000 -39.081100 -0.002282 -0.040193 0.046630 -0.120067 19.834500 -40.985400 0.000008 0.000006 32.840300 23.742100 -75.629900 -11.754300 -0.000006 -0.000006 -0.019485 -0.164418 -23.289600
0.000000 0.000000 0.000000 0.000000 0.000000 -0.000000 115.059000 90.073900 156.879000 140.590000 -74.495200 41.313800 15.735700 0.000005 -0.000001 137.176000 82.536400 -140.571000 8.984550 -0.406207 -0.000000 2.766380 11.087300 -7.068800 16.377300 -0.000001 -0.000001 2.262560 -11.348500 3.881520 6.456720 -0.000001 -0.000000 0.555646 -21.644900 3.628100 12.994200 -0.242716 4.980390 -86.173100 -7.666660 -63.371700 5.348090 -0.000007 -0.000001 -71.949700 41.296900 37.003600 24.328600 0.000019 0.000005 11.013700 3.787750 -71.251400 22.291600 -0.000001 0.000005 -1.611240 5.548500 -8.633420 12.994500 -0.242716 -4.980390 90.694800 -5.006730 -82.087300 -5.348130 -0.000001 -0.000004 -40.498300 38.980700 -70.984500 -24.328900 0.000322 -0.000009 -4.461640 2.488750 -119.083000 -22.291500 -0.000108 -0.000004 14.351400 5.500630 -6.558780 -2.192480 -6.469440 -0.000000 175.789000 -7.247050 -40.227000 39.081100 -0.000007 -0.000012 -0.009118 0.003939 66.663900 40.985400 -0.000006 -0.000013 12.127200 -8.522860 -59.813600 11.754300 -0.000000 0.000003 -0.006665 -0.076768 -19.701700 -2.192510 6.469440 -0.000001 176.734000 12.649300 -175.409000 -39.081100 -0.002282 -0.040193 0.007895 -0.014391 17.616600 -40.985400 0.000008 0.000006 32.440600 31.318600 -76.689800 -11.754300 -0.000006 -0.000006 -0.030745 -0.220858 -25.622900
